<svg width="20" height="20" viewBox="0 0 20 20" fill="none" xmlns="http://www.w3.org/2000/svg">
<path opacity="0.4" d="M10 20C15.5228 20 20 15.5228 20 10C20 4.47715 15.5228 0 10 0C4.47715 0 0 4.47715 0 10C0 15.5228 4.47715 20 10 20Z" fill="#213956"/>
<path d="M11.0594 10.0003L13.3594 7.70035C13.6494 7.41035 13.6494 6.93035 13.3594 6.64035C13.0694 6.35035 12.5894 6.35035 12.2994 6.64035L9.99939 8.94034L7.69936 6.64035C7.40936 6.35035 6.92937 6.35035 6.63938 6.64035C6.34938 6.93035 6.34938 7.41035 6.63938 7.70035L8.93939 10.0003L6.63938 12.3003C6.34938 12.5903 6.34938 13.0703 6.63938 13.3603C6.78938 13.5103 6.97936 13.5803 7.16936 13.5803C7.35936 13.5803 7.54936 13.5103 7.69936 13.3603L9.99939 11.0603L12.2994 13.3603C12.4494 13.5103 12.6394 13.5803 12.8294 13.5803C13.0194 13.5803 13.2094 13.5103 13.3594 13.3603C13.6494 13.0703 13.6494 12.5903 13.3594 12.3003L11.0594 10.0003Z" fill="#213956"/>
</svg>
