<svg width="50" height="50" viewBox="0 0 50 50" fill="none" xmlns="http://www.w3.org/2000/svg">
<path d="M49.1636 24.5818C49.1636 11.0043 38.1594 0 24.5818 0C11.0043 0 0 11.0043 0 24.5818C0 36.8536 8.98773 47.0224 20.7409 48.866V31.6875H14.4994V24.5818H20.7409V19.1661C20.7409 13.0062 24.409 9.60227 30.0263 9.60227C32.7149 9.60227 35.5284 10.0824 35.5284 10.0824V16.1318H32.4269C29.3733 16.1318 28.4227 18.0283 28.4227 19.9727V24.5818H35.2403L34.1505 31.6875H28.4227V48.866C40.1759 47.0224 49.1636 36.8536 49.1636 24.5818Z" fill="#FFFFFF"/>
<path d="M34.1505 31.6878L35.2403 24.5821H28.4227V19.973C28.4227 18.0286 29.3733 16.1321 32.4269 16.1321H35.5284V10.0827C35.5284 10.0827 32.7149 9.60254 30.0263 9.60254C24.409 9.60254 20.7409 13.0065 20.7409 19.1664V24.5821H14.4994V31.6878H20.7409V48.8663C21.994 49.0631 23.2759 49.1639 24.5818 49.1639C25.8877 49.1639 27.1697 49.0631 28.4227 48.8663V31.6878H34.1505Z" fill="none"/>
</svg>
