<svg width="66" height="51" viewBox="0 0 66 51" fill="none" xmlns="http://www.w3.org/2000/svg">
<path d="M4.63757 49.3479H15.0255V24.1201L0.185608 12.9902V44.896C0.185608 47.3557 2.17786 49.3479 4.63757 49.3479Z" fill="#4285F4"/>
<path d="M50.6412 49.3479H61.0291C63.4888 49.3479 65.4811 47.3557 65.4811 44.896V12.9902L50.6412 24.1201V49.3479Z" fill="#34A853"/>
<path d="M50.6412 4.82822V24.1201L65.4811 12.9901V7.0542C65.4811 1.55231 59.2001 -1.59003 54.7963 1.71184L50.6412 4.82822Z" fill="#FBBC04"/>
<path fill-rule="evenodd" clip-rule="evenodd" d="M15.0255 24.12V4.82812L32.8334 18.184L50.6412 4.82812V24.12L32.8334 37.4759L15.0255 24.12Z" fill="#EA4335"/>
<path d="M0.185608 7.0542V12.9901L15.0255 24.1201V4.82822L10.8703 1.71184C6.46659 -1.59003 0.185608 1.55231 0.185608 7.0542Z" fill="#C5221F"/>
</svg>
