<svg width="50" height="50" viewBox="0 0 50 50" fill="none" xmlns="http://www.w3.org/2000/svg">
<path d="M34.7115 0.193359H14.8401C6.76415 0.193359 0.193939 6.76357 0.193939 14.8395V34.7109C0.193939 42.7868 6.76415 49.357 14.8401 49.357H34.7115C42.7874 49.357 49.3576 42.7868 49.3576 34.7109V14.8395C49.3575 6.76357 42.7873 0.193359 34.7115 0.193359ZM44.4117 34.7109C44.4117 40.0681 40.0687 44.4111 34.7115 44.4111H14.8401C9.4828 44.4111 5.1398 40.0681 5.1398 34.7109V14.8395C5.1398 9.48213 9.4828 5.13922 14.8401 5.13922H34.7115C40.0687 5.13922 44.4117 9.48213 44.4117 14.8395V34.7109Z" fill="url(#paint0_linear_2480_61)"/>
<path d="M24.7757 12.0596C17.7644 12.0596 12.0602 17.7637 12.0602 24.7749C12.0602 31.7862 17.7644 37.4904 24.7757 37.4904C31.787 37.4904 37.4912 31.7863 37.4912 24.7749C37.4912 17.7636 31.787 12.0596 24.7757 12.0596ZM24.7757 32.5446C20.4846 32.5446 17.0061 29.0661 17.0061 24.775C17.0061 20.484 20.4847 17.0054 24.7757 17.0054C29.0668 17.0054 32.5453 20.484 32.5453 24.775C32.5453 29.066 29.0667 32.5446 24.7757 32.5446Z" fill="url(#paint1_linear_2480_61)"/>
<path d="M37.5157 15.2022C39.1984 15.2022 40.5626 13.838 40.5626 12.1553C40.5626 10.4725 39.1984 9.1084 37.5157 9.1084C35.8329 9.1084 34.4688 10.4725 34.4688 12.1553C34.4688 13.838 35.8329 15.2022 37.5157 15.2022Z" fill="url(#paint2_linear_2480_61)"/>
<defs>
<linearGradient id="paint0_linear_2480_61" x1="24.7758" y1="49.2139" x2="24.7758" y2="0.575222" gradientUnits="userSpaceOnUse">
<stop stop-color="#E09B3D"/>
<stop offset="0.3" stop-color="#C74C4D"/>
<stop offset="0.6" stop-color="#C21975"/>
<stop offset="1" stop-color="#7024C4"/>
</linearGradient>
<linearGradient id="paint1_linear_2480_61" x1="24.7757" y1="49.2137" x2="24.7757" y2="0.575083" gradientUnits="userSpaceOnUse">
<stop stop-color="#E09B3D"/>
<stop offset="0.3" stop-color="#C74C4D"/>
<stop offset="0.6" stop-color="#C21975"/>
<stop offset="1" stop-color="#7024C4"/>
</linearGradient>
<linearGradient id="paint2_linear_2480_61" x1="37.5157" y1="49.214" x2="37.5157" y2="0.575334" gradientUnits="userSpaceOnUse">
<stop stop-color="#E09B3D"/>
<stop offset="0.3" stop-color="#C74C4D"/>
<stop offset="0.6" stop-color="#C21975"/>
<stop offset="1" stop-color="#7024C4"/>
</linearGradient>
</defs>
</svg>
