<svg width="50" height="50" viewBox="0 0 50 50" fill="none" xmlns="http://www.w3.org/2000/svg">
<path d="M45.8459 0.194336H3.69465C1.76322 0.194336 0.193939 1.78557 0.193939 3.73895V45.8134C0.193939 47.7667 1.76322 49.358 3.69465 49.358H45.8459C47.7773 49.358 49.3576 47.7667 49.3576 45.8134V3.73895C49.3576 1.78557 47.7773 0.194336 45.8459 0.194336ZM15.0528 42.3346H7.76602V18.8721H15.0637V42.3346H15.0528ZM11.4094 15.6677C9.07193 15.6677 7.18439 13.7692 7.18439 11.4427C7.18439 9.11622 9.07193 7.21771 11.4094 7.21771C13.7359 7.21771 15.6344 9.11622 15.6344 11.4427C15.6344 13.7802 13.7469 15.6677 11.4094 15.6677V15.6677ZM42.3671 42.3346H35.0804V30.9216C35.0804 28.2 35.0255 24.6993 31.2943 24.6993C27.4973 24.6993 26.9157 27.6623 26.9157 30.7241V42.3346H19.6289V18.8721H26.6194V22.0765H26.7182C27.6948 20.2329 30.0762 18.2905 33.6208 18.2905C40.9954 18.2905 42.3671 23.152 42.3671 29.473V42.3346V42.3346Z" fill="#2867B2"/>
</svg>
